<svg version="1.1" xmlns="http://www.w3.org/2000/svg" xmlns:xlink="http://www.w3.org/1999/xlink" width="150.46096" height="90.31629" viewBox="0,0,150.46096,90.31629"><defs><linearGradient x1="240" y1="134.84186" x2="240" y2="225.15814" gradientUnits="userSpaceOnUse" id="color-1"><stop offset="0" stop-color="#7734b2"/><stop offset="1" stop-color="#3c1958"/></linearGradient><radialGradient cx="183.9865" cy="184.3003" r="6.74155" gradientUnits="userSpaceOnUse" id="color-2"><stop offset="0" stop-color="#855ba8"/><stop offset="1" stop-color="#744f93"/></radialGradient><radialGradient cx="294.61567" cy="185.35895" r="6.61296" gradientUnits="userSpaceOnUse" id="color-3"><stop offset="0" stop-color="#855ba8"/><stop offset="1" stop-color="#744f93"/></radialGradient><radialGradient cx="272.11931" cy="195.15149" r="6.55041" gradientUnits="userSpaceOnUse" id="color-4"><stop offset="0" stop-color="#855ba8"/><stop offset="1" stop-color="#744f93"/></radialGradient><radialGradient cx="206.48286" cy="195.94548" r="6.55041" gradientUnits="userSpaceOnUse" id="color-5"><stop offset="0" stop-color="#855ba8"/><stop offset="1" stop-color="#744f93"/></radialGradient><radialGradient cx="239.30109" cy="201.23874" r="7.7414" gradientUnits="userSpaceOnUse" id="color-6"><stop offset="0" stop-color="#855ba8"/><stop offset="1" stop-color="#744f93"/></radialGradient><radialGradient cx="242.30349" cy="160.85136" r="27.05977" gradientUnits="userSpaceOnUse" id="color-7"><stop offset="0" stop-color="#ddcbec"/><stop offset="1" stop-color="#ddcbec" stop-opacity="0"/></radialGradient><radialGradient cx="242.56815" cy="165.00696" r="19.6492" gradientUnits="userSpaceOnUse" id="color-8"><stop offset="0" stop-color="#eedafe"/><stop offset="1" stop-color="#eedafe" stop-opacity="0"/></radialGradient></defs><g transform="translate(-164.76952,-134.84185)"><g data-paper-data="{&quot;isPaintingLayer&quot;:true}" fill-rule="nonzero" stroke="none" stroke-linecap="butt" stroke-linejoin="miter" stroke-miterlimit="10" stroke-dasharray="" stroke-dashoffset="0" style="mix-blend-mode: normal"><path d="M315.23048,187.84064c0,4.63411 -8.97141,17.98036 -24.60991,26.36278c-14.69766,7.87812 -35.46964,10.95472 -54.59052,10.95472c-20.24457,0 -40.25713,-6.46159 -53.20853,-14.93575c-12.29668,-8.04577 -18.052,-18.00359 -18.052,-22.38175c0,-1.07044 0.53581,-3.32777 3.00131,-4.99202c3.82286,-2.5805 12.41805,-5.53432 18.71624,-8.22733c4.74117,-2.02725 9.45495,-3.31121 12.78483,-4.77236c4.14629,-1.81939 6.36544,-3.5857 6.36544,-3.5857c0,0 2.07739,-14.00687 11.28381,-22.90183c6.62017,-6.3962 19.51479,-8.51955 25.85782,-8.51955c4.59725,0 18.66232,2.98785 26.00769,10.83582c3.11331,3.32633 5.86695,6.94396 7.35032,10.67995c2.51952,6.34562 2.49686,12.28442 2.49686,12.28442c0,0 4.19339,1.73219 7.66237,3.26243c1.89696,0.83679 7.89435,3.54667 13.94065,6.25032c3.97611,1.77795 7.97337,3.3279 10.83958,5.13519c2.51109,1.58337 4.15404,3.58309 4.15404,4.55064z" fill="url(#color-1)" stroke-width="0"/><path d="M264.89275,148.0927c5.53311,5.93958 10.6714,15.54566 10.55587,20.32711c-0.04506,1.86451 -4.11134,2.62705 -4.69979,2.96833c-1.35627,0.7866 -8.42624,2.98311 -12.53774,3.48431c-6.50935,0.7935 -15.17346,1.06823 -19.77489,1.13752c-7.26855,0.10944 -16.0421,-0.32405 -21.99505,-2.30231c-1.4253,-0.47365 -4.02645,-1.25439 -5.10543,-1.85452c-2.6755,-1.48812 -2.87159,-2.84862 -2.87159,-2.84862c0,0 0.57321,-5.39414 2.67331,-10.46592c1.6378,-3.95532 4.42863,-7.34062 7.13622,-10.25885c5.86132,-6.31731 14.45551,-9.81797 21.97399,-9.81797c7.02721,0 18.22484,2.73903 24.64508,9.63091z" fill="#cebddd" stroke-width="0"/><path d="M189.33285,180.44225c0.86641,1.71169 -0.80969,3.21269 -3.98854,4.82173c-3.17885,1.60905 -8.24465,1.72434 -9.11106,0.01265c-0.86641,-1.71169 2.00068,-3.60969 5.17953,-5.21873c3.17885,-1.60905 7.05367,-1.32734 7.92008,0.38435z" fill="url(#color-2)" stroke-width="0"/><path d="M302.62303,186.34622c-0.43411,1.86871 -2.68281,1.94409 -6.15327,1.13788c-3.47046,-0.80621 -7.42933,-3.96898 -6.99521,-5.83769c0.43411,-1.86871 3.85094,-1.48418 7.32141,-0.67797c3.47046,0.80621 6.26119,3.50907 5.82708,5.37778z" fill="url(#color-3)" stroke-width="0"/><path d="M267.74422,196.49404c0,-3.61769 2.93272,-6.55041 6.55041,-6.55041c3.61769,0 6.55041,2.93272 6.55041,6.55041c0,3.61769 -2.93272,6.55041 -6.55041,6.55041c-3.61769,0 -6.55041,-2.93272 -6.55041,-6.55041z" fill="url(#color-4)" stroke-width="0"/><path d="M197.47617,196.29554c0,-3.61769 2.93272,-6.55041 6.55041,-6.55041c3.61769,0 6.55041,2.93272 6.55041,6.55041c0,3.61769 -2.93272,6.55041 -6.55041,6.55041c-3.61769,0 -6.55041,-2.93272 -6.55041,-6.55041z" fill="url(#color-5)" stroke-width="0"/><path d="M231.02221,200.26549c0,-4.27545 3.46594,-7.7414 7.7414,-7.7414c4.27545,0 7.7414,3.46594 7.7414,7.7414c0,4.27545 -3.46594,7.7414 -7.7414,7.7414c-4.27545,0 -7.7414,-3.46594 -7.7414,-7.7414z" fill="url(#color-6)" stroke-width="0"/><path d="M260.83342,153.4581c4.4703,4.7987 8.62162,12.55963 8.52828,16.42265c-0.03639,1.50637 -3.32162,2.12244 -3.79704,2.39817c-1.09575,0.63551 -6.80771,2.41011 -10.12947,2.81504c-5.25902,0.64108 -12.25892,0.86304 -15.9765,0.91902c-5.87239,0.08842 -12.9607,-0.2618 -17.7702,-1.86008c-1.15152,-0.38267 -3.25304,-1.01344 -4.12477,-1.4983c-2.16158,-1.20229 -2.32001,-2.30146 -2.32001,-2.30146c0,0 0.46311,-4.35802 2.15982,-8.45561c1.32321,-3.19557 3.57797,-5.93062 5.76548,-8.28831c4.73548,-5.10387 11.67888,-7.93212 17.7532,-7.93212c5.67742,0 14.72419,2.21291 19.91122,7.78099z" fill="url(#color-7)" stroke-width="0"/><path d="M262.21623,171.56356c-0.02643,1.09384 -2.41197,1.54119 -2.75719,1.74141c-0.79567,0.46147 -4.94336,1.75009 -7.35542,2.04412c-3.81879,0.46552 -8.9017,0.62669 -11.60119,0.66734c-4.26418,0.06421 -9.41129,-0.19011 -12.90367,-1.35068c-0.83617,-0.27788 -2.36216,-0.73591 -2.99516,-1.08798c-1.56961,-0.87303 -1.68465,-1.67118 -1.68465,-1.67118c0,0 0.33628,-3.16454 1.56833,-6.13996c0.96083,-2.32043 2.59811,-4.30646 4.18655,-6.01848c3.43862,-3.70612 8.48051,-5.75983 12.89132,-5.75983c4.12261,0 10.69183,1.60688 14.45835,5.65009c3.24607,3.48452 6.26051,9.12005 6.19273,11.92515z" fill="url(#color-8)" stroke-width="0"/><text transform="translate(202.02357,170.66088) rotate(-30.12343) scale(0.04496,0.04496)" font-size="40" xml:space="preserve" fill="#8438c2" fill-rule="nonzero" stroke="none" stroke-width="1" stroke-linecap="butt" stroke-linejoin="miter" stroke-miterlimit="10" stroke-dasharray="" stroke-dashoffset="0" font-family="Sans Serif" font-weight="normal" text-anchor="start" style="mix-blend-mode: normal"><tspan x="0" dy="0">tyfee</tspan></text></g></g></svg>