<svg version="1.1" xmlns="http://www.w3.org/2000/svg" xmlns:xlink="http://www.w3.org/1999/xlink" width="40" height="40" viewBox="0,0,40,40"><defs><radialGradient cx="240" cy="181" r="16.66667" gradientUnits="userSpaceOnUse" id="color-1"><stop offset="0" stop-color="#ff9090"/><stop offset="1" stop-color="#ff9090" stop-opacity="0"/></radialGradient><radialGradient cx="240" cy="180" r="20" gradientUnits="userSpaceOnUse" id="color-2"><stop offset="0" stop-color="#ffb5b5" stop-opacity="0"/><stop offset="1" stop-color="#ffb5b5" stop-opacity="0"/></radialGradient><linearGradient x1="240" y1="165.49265" x2="240" y2="194.50733" gradientUnits="userSpaceOnUse" id="color-3"><stop offset="0" stop-color="#ff9191"/><stop offset="1" stop-color="#ff4d4d"/></linearGradient></defs><g transform="translate(-220,-160)"><g data-paper-data="{&quot;isPaintingLayer&quot;:true}" stroke="none" stroke-linecap="butt" stroke-linejoin="miter" stroke-miterlimit="10" stroke-dasharray="" stroke-dashoffset="0" style="mix-blend-mode: normal"><path d="M223.33333,181c0,-9.20475 7.46192,-16.66667 16.66667,-16.66667c9.20475,0 16.66667,7.46192 16.66667,16.66667c0,9.20475 -7.46192,16.66667 -16.66667,16.66667c-9.20475,0 -16.66667,-7.46192 -16.66667,-16.66667z" fill="url(#color-1)" fill-rule="nonzero" stroke-width="0"/><path d="M220,200v-40h40v40z" fill="url(#color-2)" fill-rule="nonzero" stroke-width="0"/><path d="M237.48861,167.04796c1.01866,-2.07106 3.96685,-2.07375 4.99294,-0.00802l3.16782,6.39595l7.06458,1.01693c2.28445,0.32624 3.19869,3.1315 1.55074,4.74514l-5.10427,4.98789l1.21615,7.03544c0.3935,2.27172 -1.99048,4.01011 -4.03209,2.93918l-6.32403,-3.3131l-6.31274,3.33223c-2.04136,1.07654 -4.42998,-0.65455 -4.04246,-2.9288l1.19552,-7.03604l-5.11878,-4.97463c-1.65502,-1.60791 -0.74588,-4.41514 1.53636,-4.74991l7.06152,-1.03755l3.14874,-6.40471" fill="url(#color-3)" fill-rule="evenodd" stroke-width="1"/><path d="M238.48621,172.52626c0.61401,-1.24837 2.39109,-1.24999 3.00958,-0.00483l1.90947,3.85528l4.25831,0.61297c1.37699,0.19664 1.92806,1.88757 0.93473,2.86022l-3.07669,3.00654l0.73305,4.24075c0.23719,1.36932 -1.19979,2.41717 -2.43041,1.77164l-3.81193,-1.99703l-3.80512,2.00857c-1.23047,0.64891 -2.67025,-0.39454 -2.43666,-1.76539l0.72062,-4.2411l-3.08544,-2.99855c-0.99759,-0.9692 -0.44959,-2.66131 0.92607,-2.8631l4.25646,-0.62541l1.89796,-3.86056" fill="#ffaeae" fill-rule="evenodd" stroke-width="1"/></g></g></svg>