<svg version="1.1" xmlns="http://www.w3.org/2000/svg" xmlns:xlink="http://www.w3.org/1999/xlink" width="35.50356" height="35.50356" viewBox="0,0,35.50356,35.50356"><defs><radialGradient cx="240" cy="180" r="17.75178" gradientUnits="userSpaceOnUse" id="color-1"><stop offset="0" stop-color="#ffd760" stop-opacity="0"/><stop offset="1" stop-color="#ffd760" stop-opacity="0"/></radialGradient><linearGradient x1="240" y1="165.49265" x2="240" y2="194.50733" gradientUnits="userSpaceOnUse" id="color-2"><stop offset="0" stop-color="#ffcb2e"/><stop offset="1" stop-color="#ffbf00"/></linearGradient><linearGradient x1="240" y1="170.69376" x2="240" y2="189.84828" gradientUnits="userSpaceOnUse" id="color-3"><stop offset="0" stop-color="#ffecb3"/><stop offset="1" stop-color="#ffecb3" stop-opacity="0"/></linearGradient><radialGradient cx="236.19906" cy="180.15837" r="2.8903" gradientUnits="userSpaceOnUse" id="color-4"><stop offset="0" stop-color="#534007"/><stop offset="1" stop-color="#534007" stop-opacity="0"/></radialGradient><radialGradient cx="243.8122" cy="180.01126" r="2.8903" gradientUnits="userSpaceOnUse" id="color-5"><stop offset="0" stop-color="#534007"/><stop offset="1" stop-color="#534007" stop-opacity="0"/></radialGradient></defs><g transform="translate(-222.24822,-162.24822)"><g data-paper-data="{&quot;isPaintingLayer&quot;:true}" stroke-linejoin="miter" stroke-miterlimit="10" stroke-dasharray="" stroke-dashoffset="0" style="mix-blend-mode: normal"><path d="M222.24822,197.75178v-35.50356h35.50356v35.50356z" fill="none" fill-rule="nonzero" stroke="url(#color-1)" stroke-width="0" stroke-linecap="butt"/><path d="M237.48861,167.04796c1.01866,-2.07106 3.96685,-2.07375 4.99294,-0.00802l3.16782,6.39595l7.06458,1.01693c2.28445,0.32624 3.19869,3.1315 1.55074,4.74514l-5.10427,4.98789l1.21615,7.03544c0.3935,2.27172 -1.99048,4.01011 -4.03209,2.93918l-6.32403,-3.3131l-6.31274,3.33223c-2.04136,1.07654 -4.42998,-0.65455 -4.04246,-2.9288l1.19552,-7.03604l-5.11878,-4.97463c-1.65502,-1.60791 -0.74588,-4.41514 1.53636,-4.74991l7.06152,-1.03755l3.14874,-6.40471" fill="url(#color-2)" fill-rule="evenodd" stroke="none" stroke-width="1" stroke-linecap="butt"/><path d="M238.34206,171.72052c0.67249,-1.36724 2.61878,-1.36902 3.29617,-0.0053l2.09129,4.22239l4.6638,0.67134c1.50811,0.21537 2.11167,2.06731 1.02374,3.13257l-3.36966,3.29284l0.80286,4.64456c0.25978,1.49971 -1.31405,2.64734 -2.66185,1.94035l-4.17492,-2.1872l-4.16746,2.19983c-1.34764,0.7107 -2.92453,-0.43212 -2.6687,-1.9335l0.78925,-4.64496l-3.37924,-3.28407c-1.09258,-1.06149 -0.49241,-2.91473 1.01426,-3.13573l4.66177,-0.68495l2.07869,-4.22817" fill="url(#color-3)" fill-rule="evenodd" stroke="none" stroke-width="1" stroke-linecap="butt"/><path d="M233.30876,180.15837c0,-1.59627 1.29403,-2.8903 2.8903,-2.8903c1.59627,0 2.8903,1.29403 2.8903,2.8903c0,1.59627 -1.29403,2.8903 -2.8903,2.8903c-1.59627,0 -2.8903,-1.29403 -2.8903,-2.8903z" fill="url(#color-4)" fill-rule="nonzero" stroke="none" stroke-width="0" stroke-linecap="butt"/><path d="M238.03876,180c0,1.74973 -0.81053,3.16817 -1.81038,3.16817c-0.99984,0 -1.81038,-1.41844 -1.81038,-3.16817c0,-1.74973 0.81054,-3.16816 1.81038,-3.16816c0.99984,0 1.81038,1.41843 1.81038,3.16816z" fill="#2d2304" fill-rule="nonzero" stroke="none" stroke-width="0" stroke-linecap="butt"/><path d="M240.9219,180.01126c0,-1.59627 1.29403,-2.89031 2.8903,-2.89031c1.59627,0 2.8903,1.29404 2.8903,2.89031c0,1.59627 -1.29403,2.8903 -2.8903,2.8903c-1.59627,0 -2.8903,-1.29403 -2.8903,-2.8903z" fill="url(#color-5)" fill-rule="nonzero" stroke="none" stroke-width="0" stroke-linecap="butt"/><path d="M242.41383,184.66858c0,0 -0.38326,0.35583 -0.95706,0.59929c-0.49786,0.21124 -1.16302,0.31403 -1.55036,0.32177c-0.47834,0.00957 -1.15031,-0.09712 -1.60844,-0.30418c-0.46446,-0.20992 -0.71181,-0.52032 -0.71181,-0.52032" fill="none" fill-rule="nonzero" stroke="#2d2304" stroke-width="1.5" stroke-linecap="round"/><path d="M245.582,180c0,1.74973 -0.81053,3.16817 -1.81038,3.16817c-0.99984,0 -1.81038,-1.41844 -1.81038,-3.16817c0,-1.74973 0.81054,-3.16816 1.81038,-3.16816c0.99984,0 1.81038,1.41843 1.81038,3.16816z" fill="#2d2304" fill-rule="nonzero" stroke="none" stroke-width="0" stroke-linecap="butt"/><text transform="translate(231.99069,193.76806) rotate(-30.12498) scale(0.04496,0.04496)" font-size="40" xml:space="preserve" fill="#ffc61c" fill-rule="nonzero" stroke="none" stroke-width="1" stroke-linecap="butt" stroke-linejoin="miter" stroke-miterlimit="10" stroke-dasharray="" stroke-dashoffset="0" font-family="Sans Serif" font-weight="normal" text-anchor="start" style="mix-blend-mode: normal"><tspan x="0" dy="0">tyfee</tspan></text></g></g></svg>