<svg version="1.1" xmlns="http://www.w3.org/2000/svg" xmlns:xlink="http://www.w3.org/1999/xlink" width="129.51637" height="535.76621" viewBox="0,0,129.51637,535.76621"><defs><radialGradient cx="185.09128" cy="370.89835" r="95.5" gradientUnits="userSpaceOnUse" id="color-1"><stop offset="0" stop-color="#d4d4d4"/><stop offset="1" stop-color="#898989"/></radialGradient><radialGradient cx="187.55721" cy="43.82498" r="95.5" gradientUnits="userSpaceOnUse" id="color-2"><stop offset="0" stop-color="#d4d4d4"/><stop offset="1" stop-color="#898989"/></radialGradient></defs><g transform="translate(-150.09128,54.17502)"><g data-paper-data="{&quot;isPaintingLayer&quot;:true}" fill-rule="nonzero" stroke-linecap="butt" stroke-linejoin="miter" stroke-miterlimit="10" stroke-dasharray="" stroke-dashoffset="0" style="mix-blend-mode: normal"><path d="M217.59128,262.70552v216.38567h-65v-216.38567z" data-paper-data="{&quot;index&quot;:null}" fill="url(#color-1)" stroke="#000000" stroke-width="5"/><path d="M279.60765,53.48296v0v0z" fill="#f6f6f6" stroke="none" stroke-width="0"/><path d="M220.05721,-51.67502v191h-65v-191z" data-paper-data="{&quot;index&quot;:null}" fill="url(#color-2)" stroke="#000000" stroke-width="5"/><path d="M209.69577,313.04899c0,9.14843 -1.07341,16.56469 -2.39752,16.56469c-1.32411,0 -2.39752,-7.41626 -2.39752,-16.56469c0,-9.14843 1.07341,-16.56469 2.39752,-16.56469c1.32411,0 2.39752,7.41626 2.39752,16.56469z" fill="#ffffff" stroke="none" stroke-width="0"/><path d="M166.97701,114.27271c0,9.87067 -0.78066,17.87243 -1.74365,17.87243c-0.96299,0 -1.74365,-8.00176 -1.74365,-17.87243c0,-9.87067 0.78066,-17.87243 1.74365,-17.87243c0.96299,0 1.74365,8.00176 1.74365,17.87243z" fill="#ffffff" stroke="none" stroke-width="0"/></g></g></svg>